<?xml version="1.0" encoding="utf-8"?>
<!-- Generator: Adobe Illustrator 17.0.0, SVG Export Plug-In . SVG Version: 6.00 Build 0)  -->
<!DOCTYPE svg PUBLIC "-//W3C//DTD SVG 1.1//EN" "http://www.w3.org/Graphics/SVG/1.1/DTD/svg11.dtd">
<svg version="1.1" id="Слой_1" xmlns="http://www.w3.org/2000/svg" xmlns:xlink="http://www.w3.org/1999/xlink" x="0px" y="0px"
	 width="146px" height="172px" viewBox="0 0 146 172" enable-background="new 0 0 146 172" xml:space="preserve">
<g>
	<path fill="#E6E6E6" d="M72.913,4.926c34.536,0.642,68.176,9.091,69.322,18.126c0,48.719-5.977,82.166-20.005,104.436
		c-19.663,31.213-49.317,40.614-49.317,40.614s-29.653-9.401-49.317-40.614C9.568,105.218,3.591,71.771,3.591,23.052
		C4.737,14.017,38.377,5.569,72.913,4.926 M72.913,1.398L72.847,1.4C43.685,1.942,1.832,8.881,0.092,22.608l-0.028,0.22v0.223
		c0,50.279,6.529,84.062,20.547,106.316c20.121,31.938,49.975,41.696,51.236,42.096l1.066,0.338l1.066-0.338
		c1.261-0.4,31.116-10.158,51.236-42.096c14.018-22.254,20.547-56.037,20.547-106.316v-0.223l-0.028-0.22
		C143.994,8.881,102.141,1.942,72.978,1.4L72.913,1.398L72.913,1.398z"/>
	<path fill="#E6E6E6" d="M73.087,3.726c34.536,0.642,68.176,9.091,69.322,18.126c0,48.719-5.977,82.166-20.005,104.436
		c-19.663,31.213-49.317,40.614-49.317,40.614s-29.653-9.401-49.317-40.614C9.742,104.018,3.766,70.571,3.766,21.852
		C4.911,12.817,38.551,4.368,73.087,3.726 M73.087,0.198l-0.065,0.002C43.859,0.742,2.006,7.681,0.267,21.408l-0.028,0.22v0.223
		c0,50.279,6.529,84.062,20.547,106.316c20.121,31.938,49.975,41.696,51.236,42.096l1.066,0.338l1.066-0.338
		c1.261-0.4,31.116-10.158,51.236-42.096c14.018-22.254,20.547-56.037,20.547-106.316v-0.223l-0.028-0.22
		c-1.74-13.727-43.593-20.666-72.755-21.209L73.087,0.198L73.087,0.198z"/>
	<g>
		<path fill="#E6E6E6" d="M97.794,51.27c13.491,1.81,25.834,5.065,36.586,9.403c0.204-2.55,0.385-5.15,0.533-7.823
			c-10.717-4.692-23.354-8.234-37.119-10.198V51.27z"/>
		<path fill="#E6E6E6" d="M76.72,40.947c-1.265-0.027-2.531-0.052-3.807-0.052c-1.238,0-2.468,0.025-3.696,0.05v8.95h-7.503v41.456
			h22.508V49.895H76.72V40.947z"/>
		<path fill="#E6E6E6" d="M97.794,145.395c2.511-2.055,5.059-4.368,7.596-6.959V55.489c-2.485-0.453-5.022-0.85-7.596-1.201V145.395
			z"/>
		<path fill="#E6E6E6" d="M72.913,12.479c-31.2,0.58-61.591,8.212-62.625,16.374c0,3.793,0.055,7.447,0.137,11.037
			c17.57-6.918,39.044-10.948,62.489-10.948c23.444,0,44.917,4.03,62.488,10.947c0.081-3.59,0.137-7.244,0.137-11.037
			C134.504,20.691,104.113,13.06,72.913,12.479z"/>
		<path fill="#E6E6E6" d="M11.448,60.694c10.726-4.336,23.032-7.595,36.475-9.408v-8.617c-13.724,1.967-26.321,5.505-37.01,10.185
			C11.062,55.532,11.243,58.138,11.448,60.694z"/>
		<path fill="#E6E6E6" d="M108.377,135.223c3.16-3.55,6.244-7.508,9.088-12.022c8.996-14.28,14.31-33.682,16.647-59.46
			c-7.753-3.175-16.384-5.787-25.735-7.67V135.223z"/>
		<path fill="#E6E6E6" d="M61.714,154.731c6.605,3.679,11.199,5.161,11.199,5.161s4.644-1.497,11.309-5.222v-53.713H61.714V154.731z
			"/>
		<path fill="#E6E6E6" d="M41.149,139.153c2.265,2.264,4.533,4.314,6.773,6.153V54.298c-2.295,0.314-4.548,0.68-6.773,1.077V139.153
			z"/>
		<path fill="#E6E6E6" d="M28.36,123.201c3.058,4.854,6.391,9.086,9.801,12.83V55.935c-9.617,1.896-18.498,4.557-26.446,7.819
			C14.052,89.525,19.366,108.923,28.36,123.201z"/>
	</g>
</g>
</svg>
