<?xml version="1.0" encoding="utf-8"?>
<!-- Generator: Adobe Illustrator 17.0.0, SVG Export Plug-In . SVG Version: 6.00 Build 0)  -->
<!DOCTYPE svg PUBLIC "-//W3C//DTD SVG 1.1//EN" "http://www.w3.org/Graphics/SVG/1.1/DTD/svg11.dtd">
<svg version="1.1" id="Слой_1" xmlns="http://www.w3.org/2000/svg" xmlns:xlink="http://www.w3.org/1999/xlink" x="0px" y="0px"
	 width="236px" height="138px" viewBox="0 0 236 138" enable-background="new 0 0 236 138" xml:space="preserve">
<g>
	<g>
		<g>
			<path fill="#231F20" d="M1.629,78.987h13.94c0.305,0.665,0.459,1.331,0.459,1.996c0,0.647-0.118,1.092-0.351,1.335
				c-0.234,0.242-0.612,0.364-1.132,0.364h-2.077c-0.09,2.301-0.126,6.157-0.108,11.568h13.402c-0.019-5.41-0.081-9.266-0.19-11.568
				h-3.046c-0.307-0.79-0.459-1.546-0.459-2.265c0-0.503,0.131-0.867,0.392-1.093c0.259-0.224,0.651-0.337,1.173-0.337h13.94
				c0.305,0.665,0.458,1.331,0.458,1.996c0,0.647-0.117,1.092-0.35,1.335c-0.234,0.242-0.603,0.364-1.105,0.364h-2.347
				c-0.107,2.301-0.153,6.094-0.135,11.379c0,9.725,0.055,15.737,0.163,18.038h3.316c0.305,0.647,0.458,1.313,0.458,1.996
				c0,0.63-0.117,1.07-0.35,1.321c-0.234,0.252-0.603,0.378-1.105,0.378H22.525c-0.307-0.791-0.459-1.555-0.459-2.292
				c0-0.485,0.131-0.84,0.392-1.065c0.259-0.224,0.651-0.337,1.173-0.337h1.968c0.09-1.905,0.144-6.354,0.163-13.347H12.359
				c0.018,6.993,0.064,11.442,0.135,13.347h3.074c0.305,0.647,0.459,1.313,0.459,1.996c0,0.63-0.118,1.07-0.351,1.321
				c-0.234,0.252-0.612,0.378-1.132,0.378H0.523c-0.324-0.791-0.486-1.555-0.486-2.292c0-0.485,0.135-0.84,0.404-1.065
				c0.27-0.224,0.665-0.337,1.187-0.337h2.238c0.089-2.301,0.135-8.322,0.135-18.065c-0.019-5.266-0.072-9.05-0.163-11.351H0.523
				c-0.324-0.79-0.486-1.546-0.486-2.265c0-0.503,0.135-0.867,0.404-1.093C0.712,79.1,1.107,78.987,1.629,78.987z"/>
			<path fill="#231F20" d="M66.663,78.987h11.809c0.305,0.665,0.458,1.331,0.458,1.996c0,0.647-0.117,1.092-0.35,1.335
				c-0.234,0.242-0.603,0.364-1.105,0.364h-1.295c-1.169,3.47-3.06,9.239-5.675,17.311c-2.616,8.071-4.346,12.808-5.19,14.209
				c-0.846,1.402-2.616,2.104-5.313,2.104c-2.858,0-4.44-0.099-4.745-0.297c-0.305-0.198-1.982-4.921-5.029-14.169
				c-3.046-9.248-5.271-15.634-6.672-19.157h-2.265c-0.324-0.79-0.486-1.546-0.486-2.265c0-0.503,0.135-0.867,0.404-1.093
				c0.27-0.224,0.665-0.337,1.187-0.337h13.4c0.305,0.665,0.459,1.331,0.459,1.996c0,0.647-0.117,1.092-0.351,1.335
				c-0.234,0.242-0.603,0.364-1.105,0.364h-1.321c0.396,1.941,1.748,6.736,4.058,14.385c2.308,7.649,3.63,11.473,3.963,11.473
				c0.332,0,1.478-3.783,3.438-11.351c1.959-7.568,3.002-12.403,3.127-14.506H65.53c-0.305-0.79-0.458-1.546-0.458-2.265
				c0-0.503,0.13-0.867,0.39-1.093C65.724,79.1,66.124,78.987,66.663,78.987z"/>
			<path fill="#231F20" d="M83.271,78.987H98.02c0.305,0.665,0.459,1.331,0.459,1.996c0,0.647-0.118,1.092-0.351,1.335
				c-0.234,0.242-0.612,0.364-1.132,0.364H94.38c-0.09,2.301-0.126,6.094-0.108,11.379c0,9.725,0.046,15.737,0.135,18.038h3.613
				c0.305,0.647,0.459,1.313,0.459,1.996c0,0.63-0.118,1.07-0.351,1.321c-0.234,0.252-0.612,0.378-1.132,0.378h-14.83
				c-0.324-0.791-0.486-1.555-0.486-2.292c0-0.485,0.135-0.84,0.404-1.065c0.27-0.224,0.665-0.337,1.187-0.337h2.508
				c0.089-2.301,0.135-8.322,0.135-18.065c-0.019-5.266-0.072-9.05-0.163-11.351h-3.585c-0.324-0.79-0.486-1.546-0.486-2.265
				c0-0.503,0.135-0.867,0.404-1.093C82.354,79.1,82.75,78.987,83.271,78.987z"/>
			<path fill="#231F20" d="M115.6,111.289h0.646c6.022,0,10.803-0.71,14.345-2.13c0.79,1.186,1.185,2.472,1.185,3.856
				c0,0.989-0.368,1.699-1.105,2.13c-0.736,0.432-2.228,0.647-4.476,0.647l-22.325,0.027c-0.324-0.79-0.486-1.554-0.486-2.292
				c0-0.485,0.135-0.84,0.404-1.065c0.27-0.224,0.665-0.337,1.187-0.337h1.969c0.107-2.319,0.162-8.35,0.162-18.093
				c0-5.266-0.064-9.05-0.19-11.351h-3.046c-0.324-0.79-0.486-1.546-0.486-2.265c0-0.503,0.135-0.867,0.404-1.093
				c0.27-0.224,0.665-0.337,1.187-0.337h14.209c0.305,0.665,0.459,1.331,0.459,1.996c0,0.647-0.118,1.092-0.351,1.335
				c-0.234,0.242-0.603,0.364-1.105,0.364h-2.616c-0.089,2.301-0.135,6.094-0.135,11.379
				C115.438,103.785,115.492,109.528,115.6,111.289z"/>
			<path fill="#231F20" d="M136.093,78.987h14.748c0.305,0.665,0.459,1.331,0.459,1.996c0,0.647-0.118,1.092-0.351,1.335
				c-0.234,0.242-0.612,0.364-1.132,0.364h-2.616c-0.09,2.301-0.126,6.094-0.108,11.379c0,9.725,0.046,15.737,0.135,18.038h3.613
				c0.305,0.647,0.459,1.313,0.459,1.996c0,0.63-0.118,1.07-0.351,1.321c-0.234,0.252-0.612,0.378-1.132,0.378h-14.83
				c-0.324-0.791-0.486-1.555-0.486-2.292c0-0.485,0.135-0.84,0.404-1.065c0.27-0.224,0.665-0.337,1.187-0.337h2.508
				c0.089-2.301,0.135-8.322,0.135-18.065c-0.019-5.266-0.072-9.05-0.163-11.351h-3.585c-0.324-0.79-0.486-1.546-0.486-2.265
				c0-0.503,0.135-0.867,0.404-1.093C135.176,79.1,135.571,78.987,136.093,78.987z"/>
			<path fill="#231F20" d="M158.336,78.987h11.568c2.408,4.62,4.726,8.898,6.956,12.835c2.228,3.936,4.511,8.816,6.849,14.641
				v-12.43c0-5.266-0.055-9.05-0.162-11.351h-3.047c-0.305-0.79-0.458-1.546-0.458-2.265c0-0.503,0.135-0.867,0.404-1.093
				c0.27-0.224,0.664-0.337,1.185-0.337h12.133c0.305,0.665,0.459,1.331,0.459,1.996c0,0.647-0.117,1.092-0.351,1.335
				c-0.234,0.242-0.612,0.364-1.132,0.364h-2.347c-0.071,2.301-0.107,6.094-0.107,11.379v18.092c0,1.708-0.198,2.787-0.594,3.236
				c-0.396,0.449-1.438,0.674-3.127,0.674c-3.362,0-5.267-0.126-5.716-0.378c-0.45-0.251-2.247-2.974-5.393-8.17
				c-3.147-5.194-6.049-11.001-8.71-17.418c0,12.368,0.045,19.701,0.135,22.002h2.804c0.305,0.647,0.458,1.313,0.458,1.996
				c0,0.63-0.117,1.07-0.35,1.321c-0.234,0.252-0.603,0.378-1.105,0.378h-11.999c-0.324-0.791-0.486-1.555-0.486-2.292
				c0-0.485,0.135-0.84,0.404-1.065c0.27-0.224,0.665-0.337,1.187-0.337h2.238c0.107-2.301,0.162-8.322,0.162-18.065
				c-0.019-5.266-0.081-9.05-0.19-11.351h-2.776c-0.324-0.79-0.486-1.546-0.486-2.265c0-0.503,0.135-0.867,0.404-1.093
				C157.419,79.1,157.815,78.987,158.336,78.987z"/>
			<path fill="#231F20" d="M215.74,78.475c3.002,0,4.701,0.099,5.096,0.296c0.396,0.198,2.166,4.921,5.311,14.169
				c3.145,9.248,5.419,15.634,6.822,19.157h2.534c0.307,0.647,0.459,1.313,0.459,1.996c0,0.63-0.117,1.07-0.351,1.321
				c-0.234,0.252-0.61,0.378-1.132,0.378h-13.778c-0.307-0.791-0.459-1.555-0.459-2.292c0-0.485,0.135-0.84,0.404-1.065
				c0.27-0.224,0.665-0.337,1.187-0.337h1.187c-0.27-1.294-0.962-3.873-2.076-7.738h-11.433c-1.007,3.774-1.636,6.354-1.887,7.738
				h2.562c0.305,0.647,0.458,1.313,0.458,1.996c0,0.63-0.117,1.07-0.35,1.321c-0.234,0.252-0.603,0.378-1.105,0.378h-11.756
				c-0.307-0.791-0.459-1.555-0.459-2.292c0-0.485,0.131-0.84,0.392-1.065c0.259-0.224,0.651-0.337,1.173-0.337h1.456
				c1.276-3.469,3.204-9.1,5.783-16.892c2.579-7.793,4.291-12.528,5.136-14.21C211.759,79.315,213.368,78.475,215.74,78.475z
				 M210.698,99.857h8.925c-2.75-9.06-4.291-13.59-4.624-13.59C214.665,86.267,213.233,90.797,210.698,99.857z"/>
		</g>
		<g>
			<path fill="#E6E6E6" d="M118,1.594c11.317,0.211,22.34,2.979,22.715,5.939c0,15.964-1.958,26.924-6.555,34.221
				C127.717,51.983,118,55.063,118,55.063s-9.717-3.08-16.16-13.308c-4.597-7.297-6.555-18.257-6.555-34.221
				C95.66,4.573,106.683,1.805,118,1.594 M118,0.438l-0.021,0.001c-9.556,0.178-23.27,2.451-23.84,6.95l-0.009,0.072v0.073
				c0,16.475,2.139,27.545,6.733,34.837c6.593,10.465,16.376,13.663,16.789,13.794L118,56.276l0.349-0.111
				c0.413-0.131,10.196-3.328,16.789-13.794c4.594-7.292,6.733-18.362,6.733-34.837V7.461l-0.009-0.072
				c-0.57-4.498-14.284-6.772-23.84-6.95L118,0.438L118,0.438z"/>
			<path d="M118.057,1.201c11.317,0.211,22.34,2.979,22.715,5.939c0,15.964-1.958,26.924-6.555,34.221
				c-6.443,10.228-16.16,13.308-16.16,13.308s-9.717-3.08-16.16-13.308C97.3,34.064,95.342,23.105,95.342,7.14
				C95.717,4.18,106.74,1.412,118.057,1.201 M118.057,0.045l-0.021,0.001c-9.556,0.178-23.27,2.451-23.84,6.95l-0.009,0.072V7.14
				c0,16.475,2.139,27.545,6.733,34.837c6.593,10.465,16.376,13.663,16.789,13.794l0.349,0.111l0.349-0.111
				c0.413-0.131,10.196-3.328,16.789-13.794c4.594-7.292,6.733-18.362,6.733-34.837V7.067l-0.009-0.072
				c-0.57-4.498-14.284-6.772-23.84-6.95L118.057,0.045L118.057,0.045z"/>
			<g>
				
					<radialGradient id="SVGID_1_" cx="-1464.5266" cy="180.1081" r="18.3818" gradientTransform="matrix(1.0832 0 0 1.0832 1704.8286 -170.096)" gradientUnits="userSpaceOnUse">
					<stop  offset="0" style="stop-color:#EC1C24"/>
					<stop  offset="1" style="stop-color:#BE1E2D"/>
				</radialGradient>
				<path fill="url(#SVGID_1_)" d="M126.153,16.78c4.421,0.593,8.465,1.66,11.988,3.081c0.067-0.836,0.126-1.688,0.175-2.563
					c-3.512-1.538-7.652-2.698-12.163-3.342V16.78z"/>
				
					<radialGradient id="SVGID_2_" cx="-1464.5266" cy="180.1081" r="18.3818" gradientTransform="matrix(1.0832 0 0 1.0832 1704.8286 -170.096)" gradientUnits="userSpaceOnUse">
					<stop  offset="0" style="stop-color:#EC1C24"/>
					<stop  offset="1" style="stop-color:#BE1E2D"/>
				</radialGradient>
				<path fill="url(#SVGID_2_)" d="M119.247,13.397c-0.415-0.009-0.829-0.017-1.247-0.017c-0.406,0-0.809,0.008-1.211,0.016v2.933
					h-2.459v13.584h7.375V16.329h-2.458V13.397z"/>
				
					<radialGradient id="SVGID_3_" cx="-1464.5266" cy="180.1081" r="18.3818" gradientTransform="matrix(1.0832 0 0 1.0832 1704.8286 -170.096)" gradientUnits="userSpaceOnUse">
					<stop  offset="0" style="stop-color:#EC1C24"/>
					<stop  offset="1" style="stop-color:#BE1E2D"/>
				</radialGradient>
				<path fill="url(#SVGID_3_)" d="M126.153,47.623c0.823-0.673,1.658-1.431,2.489-2.28v-27.18
					c-0.814-0.148-1.645-0.279-2.489-0.393V47.623z"/>
				
					<radialGradient id="SVGID_4_" cx="-1464.5266" cy="180.1081" r="18.3818" gradientTransform="matrix(1.0832 0 0 1.0832 1704.8286 -170.096)" gradientUnits="userSpaceOnUse">
					<stop  offset="0" style="stop-color:#EC1C24"/>
					<stop  offset="1" style="stop-color:#BE1E2D"/>
				</radialGradient>
				<path fill="url(#SVGID_4_)" d="M118,4.069c-10.224,0.19-20.182,2.691-20.521,5.365c0,1.243,0.018,2.44,0.045,3.617
					c5.757-2.267,12.794-3.587,20.476-3.587c7.682,0,14.718,1.321,20.476,3.587c0.027-1.177,0.045-2.374,0.045-3.617
					C138.182,6.76,128.223,4.259,118,4.069z"/>
				
					<radialGradient id="SVGID_5_" cx="-1464.5266" cy="180.1081" r="18.3818" gradientTransform="matrix(1.0832 0 0 1.0832 1704.8286 -170.096)" gradientUnits="userSpaceOnUse">
					<stop  offset="0" style="stop-color:#EC1C24"/>
					<stop  offset="1" style="stop-color:#BE1E2D"/>
				</radialGradient>
				<path fill="url(#SVGID_5_)" d="M97.859,19.868c3.515-1.421,7.547-2.489,11.952-3.083v-2.824
					c-4.497,0.645-8.625,1.804-12.127,3.337C97.733,18.177,97.792,19.031,97.859,19.868z"/>
				
					<radialGradient id="SVGID_6_" cx="-1464.5266" cy="180.1081" r="18.3818" gradientTransform="matrix(1.0832 0 0 1.0832 1704.8286 -170.096)" gradientUnits="userSpaceOnUse">
					<stop  offset="0" style="stop-color:#EC1C24"/>
					<stop  offset="1" style="stop-color:#BE1E2D"/>
				</radialGradient>
				<path fill="url(#SVGID_6_)" d="M129.621,44.29c1.035-1.163,2.046-2.46,2.978-3.939c2.948-4.679,4.689-11.037,5.455-19.484
					c-2.54-1.041-5.369-1.896-8.433-2.513V44.29z"/>
				
					<radialGradient id="SVGID_7_" cx="-1464.5266" cy="180.1081" r="18.3818" gradientTransform="matrix(1.0832 0 0 1.0832 1704.8286 -170.096)" gradientUnits="userSpaceOnUse">
					<stop  offset="0" style="stop-color:#EC1C24"/>
					<stop  offset="1" style="stop-color:#BE1E2D"/>
				</radialGradient>
				<path fill="url(#SVGID_7_)" d="M114.33,50.682c2.164,1.205,3.67,1.691,3.67,1.691s1.522-0.491,3.706-1.711V33.061h-7.375V50.682
					z"/>
				
					<radialGradient id="SVGID_8_" cx="-1464.5266" cy="180.1081" r="18.3818" gradientTransform="matrix(1.0832 0 0 1.0832 1704.8286 -170.096)" gradientUnits="userSpaceOnUse">
					<stop  offset="0" style="stop-color:#EC1C24"/>
					<stop  offset="1" style="stop-color:#BE1E2D"/>
				</radialGradient>
				<path fill="url(#SVGID_8_)" d="M107.592,45.577c0.742,0.742,1.485,1.414,2.219,2.016V17.772
					c-0.752,0.103-1.49,0.223-2.219,0.353V45.577z"/>
				
					<radialGradient id="SVGID_9_" cx="-1464.5266" cy="180.1081" r="18.3818" gradientTransform="matrix(1.0832 0 0 1.0832 1704.8286 -170.096)" gradientUnits="userSpaceOnUse">
					<stop  offset="0" style="stop-color:#EC1C24"/>
					<stop  offset="1" style="stop-color:#BE1E2D"/>
				</radialGradient>
				<path fill="url(#SVGID_9_)" d="M103.401,40.35c1.002,1.591,2.094,2.977,3.212,4.204V18.309
					c-3.151,0.621-6.061,1.493-8.666,2.562C98.712,29.315,100.454,35.672,103.401,40.35z"/>
			</g>
		</g>
	</g>
	<g>
		<path fill="#231F20" d="M10.35,128.606h0.873v3.98h5.445v-3.98h0.873v9.169h-0.873v-4.443h-5.445v4.443H10.35V128.606z"/>
		<path fill="#231F20" d="M31,128.606h0.976l3.596,9.169h-0.937l-1.117-2.851h-4.174l-1.104,2.851h-0.925L31,128.606z
			 M33.222,134.179l-1.772-4.701l-1.837,4.701H33.222z"/>
		<path fill="#231F20" d="M47.54,129.351h-3.185v-0.744h7.256v0.744h-3.197v8.424H47.54V129.351z"/>
		<path fill="#231F20" d="M63.618,133.049l-3.107-4.443h1.027l2.594,3.839l2.684-3.839h0.976l-3.134,4.468l3.313,4.701h-1.053
			l-2.787-4.045l-2.825,4.045h-0.976L63.618,133.049z"/>
		<path fill="#231F20" d="M77.693,128.606h0.873v3.98h5.445v-3.98h0.873v9.169h-0.873v-4.443h-5.445v4.443h-0.873V128.606z"/>
		<path fill="#231F20" d="M95.659,128.606h6.331v0.744h-5.458v3.313h5.111v0.744h-5.111v3.622h5.522v0.744h-6.395V128.606z"/>
		<path fill="#231F20" d="M112.2,128.606h0.873v3.98h5.445v-3.98h0.873v9.169h-0.873v-4.443h-5.445v4.443H112.2V128.606z"/>
		<path fill="#231F20" d="M130.166,128.606h0.873v3.98h5.445v-3.98h0.873v9.169h-0.873v-4.443h-5.445v4.443h-0.873V128.606z"/>
		<path fill="#231F20" d="M150.392,133.794c-0.377-0.017-0.726-0.086-1.047-0.205s-0.6-0.287-0.835-0.501
			c-0.236-0.214-0.42-0.473-0.552-0.778c-0.133-0.303-0.199-0.657-0.199-1.059c0-0.412,0.064-0.779,0.193-1.105
			c0.128-0.325,0.315-0.601,0.559-0.828c0.244-0.227,0.535-0.402,0.873-0.527c0.339-0.124,0.722-0.186,1.15-0.186h3.84v9.169H153.5
			v-3.93h-2.055l-3.056,3.93h-1.13L150.392,133.794z M153.5,133.113v-3.762h-2.774c-0.642,0-1.152,0.17-1.528,0.508
			c-0.377,0.34-0.565,0.806-0.565,1.399s0.188,1.05,0.565,1.372c0.377,0.323,0.886,0.483,1.528,0.483H153.5z"/>
		<path fill="#231F20" d="M189.282,133.608c-0.129,0.034-0.308,0.072-0.539,0.114c-0.231,0.042-0.482,0.082-0.751,0.12
			c-0.27,0.038-0.54,0.072-0.809,0.1c-0.27,0.03-0.507,0.044-0.713,0.044c-0.66,0-1.183-0.079-1.573-0.237
			c-0.389-0.158-0.687-0.364-0.892-0.617c-0.206-0.252-0.339-0.535-0.398-0.847c-0.06-0.312-0.089-0.624-0.089-0.931v-2.748h0.873
			v2.703c0,0.189,0.017,0.396,0.051,0.619c0.034,0.222,0.12,0.431,0.257,0.624c0.137,0.194,0.336,0.357,0.597,0.49
			c0.261,0.133,0.622,0.2,1.085,0.2c0.274,0,0.559-0.015,0.855-0.046c0.295-0.03,0.575-0.064,0.841-0.103
			c0.265-0.039,0.503-0.08,0.713-0.122c0.21-0.043,0.375-0.078,0.495-0.104v-4.262h0.873v9.169h-0.873V133.608z"/>
		<path fill="#231F20" d="M203.613,128.606h0.976l3.596,9.169h-0.937l-1.117-2.851h-4.174l-1.104,2.851h-0.925L203.613,128.606z
			 M205.835,134.179l-1.772-4.701l-1.837,4.701H205.835z"/>
		<path fill="#231F20" d="M221.836,137.955c-0.719,0-1.35-0.131-1.894-0.392c-0.544-0.261-0.995-0.61-1.355-1.047
			c-0.359-0.437-0.629-0.942-0.809-1.515c-0.18-0.573-0.27-1.177-0.27-1.81c0-0.625,0.09-1.227,0.27-1.805
			c0.18-0.578,0.45-1.087,0.809-1.528c0.36-0.441,0.811-0.792,1.355-1.053s1.175-0.391,1.894-0.391c0.437,0,0.862,0.064,1.278,0.193
			c0.415,0.128,0.792,0.318,1.13,0.571c0.338,0.252,0.621,0.563,0.848,0.93c0.227,0.368,0.37,0.792,0.43,1.272h-0.873
			c-0.078-0.351-0.204-0.666-0.379-0.944c-0.176-0.278-0.39-0.512-0.642-0.7c-0.253-0.188-0.531-0.332-0.835-0.431
			c-0.304-0.098-0.622-0.147-0.957-0.147c-0.608,0-1.13,0.115-1.566,0.345c-0.437,0.231-0.795,0.537-1.073,0.918
			c-0.278,0.38-0.483,0.812-0.616,1.295c-0.133,0.482-0.199,0.971-0.199,1.467c0,0.505,0.066,0.996,0.199,1.475
			c0.133,0.478,0.338,0.908,0.616,1.288c0.278,0.381,0.636,0.685,1.073,0.917c0.437,0.23,0.958,0.345,1.566,0.345
			c0.42,0,0.803-0.076,1.149-0.23c0.347-0.155,0.644-0.364,0.893-0.629c0.248-0.266,0.449-0.576,0.604-0.931
			c0.154-0.355,0.253-0.739,0.295-1.149h0.873c-0.06,0.565-0.193,1.074-0.398,1.528c-0.205,0.454-0.471,0.84-0.796,1.158
			c-0.326,0.318-0.709,0.564-1.15,0.739C222.865,137.867,222.375,137.955,221.836,137.955z"/>
	</g>
</g>
</svg>
