<?xml version="1.0" encoding="utf-8"?>
<!-- Generator: Adobe Illustrator 17.0.0, SVG Export Plug-In . SVG Version: 6.00 Build 0)  -->
<!DOCTYPE svg PUBLIC "-//W3C//DTD SVG 1.1//EN" "http://www.w3.org/Graphics/SVG/1.1/DTD/svg11.dtd">
<svg version="1.1" id="Слой_1" xmlns="http://www.w3.org/2000/svg" xmlns:xlink="http://www.w3.org/1999/xlink" x="0px" y="0px"
	 width="416.991px" height="290.93px" viewBox="0 0 416.991 290.93" enable-background="new 0 0 416.991 290.93"
	 xml:space="preserve">
<g>
	<radialGradient id="SVGID_1_" cx="208.8106" cy="41.5813" r="55.8178" gradientUnits="userSpaceOnUse">
		<stop  offset="0" style="stop-color:#FFFFFF"/>
		<stop  offset="0.201" style="stop-color:#F8F8F8"/>
		<stop  offset="0.4893" style="stop-color:#E5E5E5"/>
		<stop  offset="0.8287" style="stop-color:#C6C6C6"/>
		<stop  offset="1" style="stop-color:#B4B4B4"/>
	</radialGradient>
	<path fill="url(#SVGID_1_)" d="M208.411,2.05c20.002,0.372,39.485,5.265,40.148,10.498c0,28.216-3.461,47.587-11.586,60.485
		c-11.388,18.077-28.562,23.522-28.562,23.522s-17.174-5.445-28.562-23.522c-8.124-12.898-11.586-32.269-11.586-60.485
		C168.926,7.315,188.409,2.422,208.411,2.05"/>
	<g>
		<path fill="#FFFFFF" d="M106.455,274.943h3.441v-30.198H99.96v30.198h3.441v4.33H91.022v-4.33h3.553v-30.198h-3.553v-4.33h27.812
			v4.33h-3.553v30.198h3.553v4.33h-12.379V274.943z"/>
		<path fill="#FFFFFF" d="M122.167,266.672v-2.554c0-8.104,3.497-13.156,9.271-13.156s9.271,5.052,9.271,13.156v2.554
			c0,8.104-3.497,13.156-9.271,13.156S122.167,274.777,122.167,266.672z M126.941,264.451v1.888
			c0.056,5.606,1.443,9.159,4.496,9.159c3.108,0,4.497-3.775,4.497-9.659v-1.388c-0.111-5.606-1.499-9.159-4.497-9.159
			C128.385,255.292,126.997,258.845,126.941,264.451z"/>
		<path fill="#FFFFFF" d="M143.875,251.517h10.491c4.441,0,8.216,2.054,8.216,6.662c0,2.775-1.499,4.885-3.83,6.217
			c2.498,0.833,4.219,2.609,4.219,5.718c0,5.773-4.996,9.159-11.546,9.159h-7.55v-4.33h2.775v-19.096h-2.775V251.517z
			 M152.757,263.73c3.663,0,5.052-2.165,5.052-4.719c0-1.999-1.722-3.164-4.607-3.164h-1.776v19.096
			c4.329-0.055,6.771-1.665,6.771-4.718c0-2.221-1.721-3.053-4.552-3.109h-0.888V263.73z"/>
		<path fill="#FFFFFF" d="M185.677,279.273h-7.55v-23.426h-0.222c-4.441,0-6.828,2.22-6.828,5.273c0,2.276,1.776,3.664,4.719,3.664
			h0.999v3.275h-0.999l-3.608,11.213h-6.606v-4.33h3.054l2.831-7.327c-2.609-0.611-5.107-3.053-5.107-6.384
			c0-5.829,4.996-9.715,11.657-9.715h7.661v4.33h-2.775v19.096h2.775V279.273z"/>
		<path fill="#FFFFFF" d="M188.12,250.962h4.83c7.271,0,10.991,2.887,10.991,7.383c0,2.831-1.61,5.163-4.053,6.606
			c2.609,0.777,4.497,2.553,4.497,5.773c0,5.995-4.886,9.048-9.771,9.048c-1.555,0-3.941-0.222-4.829-0.5v-4.33
			c0.722,0.167,2.608,0.278,3.553,0.278c4.274,0,6.217-1.333,6.217-4.274c0-2.276-1.888-3.22-4.94-3.22h-1.166v-3.386h0.556
			c3.719,0,5.162-2.554,5.162-5.107c0-2.387-1.665-3.941-5.884-3.941h-0.556v7.328h-4.607V250.962z"/>
		<path fill="#FFFFFF" d="M207.106,251.517h7.55v10.825h2.442c4.718,0,8.659,1.832,8.659,7.05c0,5.662-5.218,9.881-11.657,9.881
			h-6.994v-4.33h2.775v-19.096h-2.775V251.517z M217.099,266.117h-2.442v8.826c4.496-0.222,6.328-2.72,6.328-5.384
			C220.984,267.116,219.041,266.117,217.099,266.117z"/>
		<path fill="#FFFFFF" d="M240.805,244.745h-3.553v-4.33h12.213v4.33h-3.275v11.88c0,2.442,0.943,3.719,2.775,3.719
			c2.442,0,5.385-2.498,6.605-6.273v-9.326h-3.274v-4.33h12.212v4.33h-3.553v30.198h3.553v4.33h-13.045v-4.33h4.107v-15.099
			c-2.22,3.498-5.329,5.496-8.549,5.496c-3.607,0-6.217-2.331-6.217-7.882V244.745z"/>
		<path fill="#FFFFFF" d="M287.159,279.273h-7.55v-3.997c-1.499,2.665-3.83,4.552-6.55,4.552c-3.498,0-5.773-2.554-5.773-5.884
			c0-6.328,5.606-9.493,12.323-9.992v-0.943c0-3.997-1.276-7.716-6.106-7.716v7.328h-4.607v-11.658h3.664
			c7.994,0,11.824,5.107,11.824,12.879v11.102h2.775V279.273z M279.609,269.281v-1.554c-4.274,0.277-7.494,2.498-7.494,5.107
			c0,1.388,0.777,2.276,2.388,2.276C277.444,275.11,279.443,271.835,279.609,269.281z"/>
		<path fill="#FFFFFF" d="M288.771,266.394v-0.333c0-7.716,5.051-15.099,13.434-15.099h2.608l-2.275,11.546h-4.386l1.499-7.161
			c-3.497,0.5-6.106,5.496-6.106,10.103v0.833c0,5.107,2.221,8.938,7.938,8.938c0.943,0,1.665-0.111,2.387-0.278v4.33
			c-0.888,0.277-1.998,0.555-3.553,0.555C292.713,279.828,288.771,274.055,288.771,266.394z"/>
		<path fill="#FFFFFF" d="M309.534,280.217h4.386l-1.276,6.217c2.109,0,3.22-2.776,3.996-7.161h-2.775l-5.273-23.426h-3.164v-4.33
			h7.438l4.607,22.76h0.222l3.109-18.43h-2.665v-4.33h9.492v4.33h-2.553l-3.997,22.538c-1.388,7.771-3.83,12.545-10.048,12.545
			c-0.722,0-2.942-0.111-3.497-0.333L309.534,280.217z"/>
	</g>
	<g>
		<g>
			<path fill="#231F20" d="M2.812,139.529H27.45c0.54,1.176,0.812,2.352,0.812,3.527c0,1.144-0.209,1.93-0.62,2.359
				c-0.414,0.428-1.081,0.643-2.001,0.643h-3.671c-0.16,4.068-0.223,10.882-0.191,20.445h23.687
				c-0.034-9.563-0.144-16.378-0.335-20.445h-5.384c-0.542-1.397-0.812-2.732-0.812-4.003c0-0.889,0.232-1.533,0.692-1.931
				c0.459-0.397,1.151-0.596,2.073-0.596h24.638c0.54,1.176,0.809,2.352,0.809,3.527c0,1.144-0.207,1.93-0.618,2.359
				c-0.414,0.428-1.066,0.643-1.953,0.643h-4.148c-0.189,4.068-0.27,10.771-0.238,20.111c0,17.188,0.097,27.815,0.288,31.882h5.86
				c0.54,1.144,0.809,2.32,0.809,3.527c0,1.113-0.207,1.891-0.618,2.335c-0.414,0.446-1.066,0.668-1.953,0.668H39.746
				c-0.542-1.398-0.812-2.748-0.812-4.051c0-0.858,0.232-1.485,0.692-1.883c0.459-0.397,1.151-0.596,2.073-0.596h3.478
				c0.16-3.367,0.254-11.231,0.288-23.59H21.778c0.031,12.359,0.112,20.223,0.238,23.59h5.433c0.54,1.144,0.812,2.32,0.812,3.527
				c0,1.113-0.209,1.891-0.62,2.335c-0.414,0.446-1.081,0.668-2.001,0.668H0.859C0.285,203.182,0,201.832,0,200.529
				c0-0.858,0.238-1.485,0.715-1.883c0.477-0.397,1.176-0.596,2.097-0.596h3.956c0.157-4.067,0.238-14.71,0.238-31.93
				c-0.034-9.308-0.128-15.995-0.288-20.063h-5.86C0.285,144.661,0,143.325,0,142.055c0-0.889,0.238-1.533,0.715-1.931
				C1.191,139.728,1.89,139.529,2.812,139.529z"/>
			<path fill="#231F20" d="M117.76,139.529h20.872c0.54,1.176,0.809,2.352,0.809,3.527c0,1.144-0.207,1.93-0.618,2.359
				c-0.414,0.428-1.066,0.643-1.953,0.643h-2.288c-2.066,6.132-5.409,16.33-10.03,30.596c-4.624,14.266-7.681,22.637-9.174,25.114
				c-1.495,2.478-4.624,3.718-9.39,3.718c-5.051,0-7.848-0.175-8.387-0.525c-0.54-0.35-3.502-8.697-8.888-25.043
				c-5.384-16.346-9.316-27.632-11.793-33.86h-4.004c-0.573-1.397-0.859-2.732-0.859-4.003c0-0.889,0.238-1.533,0.715-1.931
				c0.477-0.397,1.176-0.596,2.097-0.596h23.685c0.54,1.176,0.812,2.352,0.812,3.527c0,1.144-0.207,1.93-0.62,2.359
				c-0.414,0.428-1.066,0.643-1.953,0.643h-2.336c0.699,3.432,3.089,11.906,7.173,25.425c4.08,13.519,6.416,20.278,7.005,20.278
				c0.587,0,2.612-6.687,6.076-20.063c3.462-13.375,5.305-21.922,5.528-25.639h-4.48c-0.54-1.397-0.809-2.732-0.809-4.003
				c0-0.889,0.229-1.533,0.69-1.931C116.098,139.728,116.807,139.529,117.76,139.529z"/>
			<path fill="#231F20" d="M147.114,139.529h26.067c0.54,1.176,0.812,2.352,0.812,3.527c0,1.144-0.209,1.93-0.62,2.359
				c-0.414,0.428-1.081,0.643-2.001,0.643h-4.624c-0.16,4.068-0.223,10.771-0.191,20.111c0,17.188,0.081,27.815,0.238,31.882h6.386
				c0.54,1.144,0.812,2.32,0.812,3.527c0,1.113-0.209,1.891-0.62,2.335c-0.414,0.446-1.081,0.668-2.001,0.668H145.16
				c-0.573-1.398-0.859-2.748-0.859-4.051c0-0.858,0.238-1.485,0.715-1.883c0.477-0.397,1.176-0.596,2.097-0.596h4.433
				c0.157-4.067,0.238-14.71,0.238-31.93c-0.034-9.308-0.128-15.995-0.288-20.063h-6.337c-0.573-1.397-0.859-2.732-0.859-4.003
				c0-0.889,0.238-1.533,0.715-1.931C145.493,139.728,146.192,139.529,147.114,139.529z"/>
			<path fill="#231F20" d="M204.255,196.621h1.142c10.644,0,19.094-1.254,25.355-3.764c1.396,2.096,2.095,4.369,2.095,6.815
				c0,1.748-0.65,3.002-1.953,3.764c-1.302,0.763-3.938,1.144-7.911,1.144l-39.459,0.047c-0.573-1.397-0.859-2.747-0.859-4.051
				c0-0.858,0.238-1.485,0.715-1.882c0.477-0.397,1.176-0.596,2.097-0.596h3.48c0.189-4.099,0.285-14.758,0.285-31.978
				c0-9.308-0.112-15.995-0.335-20.063h-5.384c-0.573-1.397-0.859-2.732-0.859-4.003c0-0.889,0.238-1.533,0.715-1.931
				c0.477-0.397,1.176-0.596,2.097-0.596h25.114c0.54,1.176,0.812,2.352,0.812,3.527c0,1.144-0.209,1.93-0.62,2.359
				c-0.414,0.428-1.066,0.643-1.953,0.643h-4.624c-0.157,4.068-0.238,10.771-0.238,20.111
				C203.967,183.357,204.064,193.508,204.255,196.621z"/>
			<path fill="#231F20" d="M240.474,139.529h26.067c0.54,1.176,0.812,2.352,0.812,3.527c0,1.144-0.209,1.93-0.62,2.359
				c-0.414,0.428-1.081,0.643-2.001,0.643h-4.624c-0.16,4.068-0.223,10.771-0.191,20.111c0,17.188,0.081,27.815,0.238,31.882h6.386
				c0.54,1.144,0.812,2.32,0.812,3.527c0,1.113-0.209,1.891-0.62,2.335c-0.414,0.446-1.081,0.668-2.001,0.668H238.52
				c-0.573-1.398-0.859-2.748-0.859-4.051c0-0.858,0.238-1.485,0.715-1.883c0.477-0.397,1.176-0.596,2.097-0.596h4.433
				c0.157-4.067,0.238-14.71,0.238-31.93c-0.034-9.308-0.128-15.995-0.288-20.063h-6.337c-0.573-1.397-0.859-2.732-0.859-4.003
				c0-0.889,0.238-1.533,0.715-1.931C238.853,139.728,239.552,139.529,240.474,139.529z"/>
			<path fill="#231F20" d="M279.789,139.529h20.445c4.255,8.166,8.353,15.727,12.294,22.685c3.938,6.957,7.974,15.583,12.105,25.877
				v-21.971c0-9.308-0.097-15.995-0.285-20.063h-5.386c-0.54-1.397-0.809-2.732-0.809-4.003c0-0.889,0.238-1.533,0.715-1.931
				c0.477-0.397,1.173-0.596,2.095-0.596h21.446c0.54,1.176,0.812,2.352,0.812,3.527c0,1.144-0.207,1.93-0.62,2.359
				c-0.414,0.428-1.081,0.643-2.001,0.643h-4.148c-0.126,4.068-0.189,10.771-0.189,20.111v31.977c0,3.019-0.351,4.925-1.05,5.719
				s-2.542,1.191-5.528,1.191c-5.941,0-9.309-0.223-10.102-0.668c-0.796-0.444-3.972-5.257-9.531-14.44
				c-5.561-9.181-10.691-19.444-15.394-30.786c0,21.859,0.079,34.821,0.238,38.888h4.957c0.54,1.144,0.809,2.32,0.809,3.527
				c0,1.113-0.207,1.891-0.618,2.335c-0.414,0.446-1.066,0.668-1.953,0.668h-21.207c-0.573-1.398-0.859-2.748-0.859-4.051
				c0-0.858,0.238-1.485,0.715-1.883c0.477-0.397,1.176-0.596,2.097-0.596h3.956c0.189-4.067,0.285-14.71,0.285-31.93
				c-0.034-9.308-0.144-15.995-0.335-20.063h-4.907c-0.573-1.397-0.859-2.732-0.859-4.003c0-0.889,0.238-1.533,0.715-1.931
				C278.168,139.728,278.867,139.529,279.789,139.529z"/>
			<path fill="#231F20" d="M381.248,138.624c5.305,0,8.309,0.174,9.008,0.524c0.699,0.351,3.828,8.697,9.388,25.043
				c5.559,16.346,9.579,27.633,12.058,33.86h4.478c0.542,1.144,0.812,2.32,0.812,3.527c0,1.113-0.207,1.891-0.62,2.335
				c-0.414,0.446-1.079,0.668-2.001,0.668h-24.352c-0.542-1.398-0.812-2.748-0.812-4.051c0-0.858,0.238-1.485,0.715-1.883
				c0.477-0.397,1.176-0.596,2.097-0.596h2.097c-0.477-2.287-1.699-6.846-3.669-13.677H370.24
				c-1.78,6.671-2.891,11.231-3.336,13.677h4.527c0.54,1.144,0.809,2.32,0.809,3.527c0,1.113-0.207,1.891-0.618,2.335
				c-0.414,0.446-1.066,0.668-1.953,0.668h-20.778c-0.542-1.398-0.811-2.748-0.811-4.051c0-0.858,0.232-1.485,0.692-1.883
				c0.459-0.397,1.151-0.596,2.073-0.596h2.574c2.255-6.131,5.663-16.084,10.221-29.856c4.559-13.773,7.585-22.144,9.077-25.115
				C374.212,140.109,377.056,138.624,381.248,138.624z M372.337,176.415h15.774c-4.86-16.013-7.585-24.02-8.174-24.02
				S376.818,160.402,372.337,176.415z"/>
		</g>
		<g>
			<path fill="#E6E6E5" d="M208.495,2.739c20.002,0.372,39.485,5.265,40.148,10.498c0,28.216-3.461,47.587-11.586,60.485
				c-11.388,18.077-28.562,23.522-28.562,23.522s-17.174-5.445-28.562-23.522c-8.124-12.898-11.586-32.269-11.586-60.485
				C169.01,8.004,188.493,3.111,208.495,2.739 M208.495,0.695l-0.038,0.001c-16.89,0.314-41.129,4.333-42.137,12.283l-0.016,0.128
				v0.129c0,29.12,3.781,48.685,11.9,61.574c11.653,18.497,28.944,24.149,29.674,24.38l0.617,0.196l0.617-0.196
				c0.73-0.231,18.021-5.883,29.674-24.38c8.119-12.889,11.9-32.454,11.9-61.574v-0.129l-0.016-0.128
				c-1.008-7.95-25.247-11.969-42.137-12.283L208.495,0.695L208.495,0.695z"/>
			<path fill="#010101" d="M208.596,2.043c20.002,0.372,39.485,5.265,40.148,10.498c0,28.216-3.461,47.587-11.586,60.485
				c-11.388,18.077-28.562,23.522-28.562,23.522s-17.174-5.445-28.562-23.522c-8.124-12.898-11.586-32.269-11.586-60.485
				C169.111,7.308,188.594,2.416,208.596,2.043 M208.596,0l-0.038,0.001c-16.89,0.314-41.129,4.333-42.137,12.283l-0.016,0.128
				v0.129c0,29.12,3.781,48.685,11.9,61.574c11.653,18.497,28.944,24.149,29.674,24.38l0.617,0.196l0.617-0.196
				c0.73-0.231,18.021-5.883,29.674-24.38c8.119-12.889,11.9-32.454,11.9-61.574v-0.129l-0.016-0.128
				c-1.008-7.95-25.247-11.969-42.137-12.283L208.596,0L208.596,0z"/>
			<g>
				
					<radialGradient id="SVGID_2_" cx="1317.5006" cy="-1.3275" r="18.3818" gradientTransform="matrix(1.9146 0 0 1.9146 -2313.1699 46.6487)" gradientUnits="userSpaceOnUse">
					<stop  offset="0" style="stop-color:#EB2227"/>
					<stop  offset="1" style="stop-color:#BE202E"/>
				</radialGradient>
				<path fill="url(#SVGID_2_)" d="M222.906,29.579c7.813,1.048,14.962,2.934,21.189,5.446c0.118-1.477,0.223-2.983,0.309-4.53
					c-6.207-2.718-13.526-4.769-21.498-5.906V29.579z"/>
				
					<radialGradient id="SVGID_3_" cx="1317.5006" cy="-1.3275" r="18.3818" gradientTransform="matrix(1.9146 0 0 1.9146 -2313.1699 46.6487)" gradientUnits="userSpaceOnUse">
					<stop  offset="0" style="stop-color:#EB2227"/>
					<stop  offset="1" style="stop-color:#BE202E"/>
				</radialGradient>
				<path fill="url(#SVGID_3_)" d="M210.7,23.6c-0.733-0.016-1.466-0.03-2.205-0.03c-0.717,0-1.429,0.014-2.141,0.029v5.183h-4.346
					v24.01h13.036v-24.01H210.7V23.6z"/>
				
					<radialGradient id="SVGID_4_" cx="1317.5006" cy="-1.3275" r="18.3818" gradientTransform="matrix(1.9146 0 0 1.9146 -2313.1699 46.6487)" gradientUnits="userSpaceOnUse">
					<stop  offset="0" style="stop-color:#EB2227"/>
					<stop  offset="1" style="stop-color:#BE202E"/>
				</radialGradient>
				<path fill="url(#SVGID_4_)" d="M222.906,84.092c1.454-1.19,2.93-2.53,4.399-4.03V32.022c-1.44-0.262-2.908-0.492-4.399-0.695
					V84.092z"/>
				
					<radialGradient id="SVGID_5_" cx="1317.5006" cy="-1.3275" r="18.3818" gradientTransform="matrix(1.9146 0 0 1.9146 -2313.1699 46.6487)" gradientUnits="userSpaceOnUse">
					<stop  offset="0" style="stop-color:#EB2227"/>
					<stop  offset="1" style="stop-color:#BE202E"/>
				</radialGradient>
				<path fill="url(#SVGID_5_)" d="M208.496,7.113c-18.07,0.336-35.671,4.756-36.27,9.483c0,2.197,0.032,4.313,0.079,6.392
					c10.176-4.006,22.613-6.34,36.191-6.34c13.578,0,26.014,2.334,36.191,6.34c0.047-2.079,0.079-4.196,0.079-6.392
					C244.167,11.869,226.565,7.449,208.496,7.113z"/>
				
					<radialGradient id="SVGID_6_" cx="1317.5006" cy="-1.3275" r="18.3818" gradientTransform="matrix(1.9146 0 0 1.9146 -2313.1699 46.6487)" gradientUnits="userSpaceOnUse">
					<stop  offset="0" style="stop-color:#EB2227"/>
					<stop  offset="1" style="stop-color:#BE202E"/>
				</radialGradient>
				<path fill="url(#SVGID_6_)" d="M172.897,35.037c6.212-2.511,13.339-4.399,21.125-5.449v-4.99
					c-7.948,1.139-15.244,3.188-21.435,5.899C172.674,32.048,172.779,33.557,172.897,35.037z"/>
				
					<radialGradient id="SVGID_7_" cx="1317.5006" cy="-1.3275" r="18.3818" gradientTransform="matrix(1.9146 0 0 1.9146 -2313.1699 46.6487)" gradientUnits="userSpaceOnUse">
					<stop  offset="0" style="stop-color:#EB2227"/>
					<stop  offset="1" style="stop-color:#BE202E"/>
				</radialGradient>
				<path fill="url(#SVGID_7_)" d="M229.035,78.201c1.83-2.056,3.617-4.348,5.264-6.963c5.21-8.27,8.288-19.507,9.641-34.437
					c-4.49-1.839-9.489-3.352-14.905-4.442V78.201z"/>
				
					<radialGradient id="SVGID_8_" cx="1317.5006" cy="-1.3275" r="18.3818" gradientTransform="matrix(1.9146 0 0 1.9146 -2313.1699 46.6487)" gradientUnits="userSpaceOnUse">
					<stop  offset="0" style="stop-color:#EB2227"/>
					<stop  offset="1" style="stop-color:#BE202E"/>
				</radialGradient>
				<path fill="url(#SVGID_8_)" d="M202.009,89.499c3.825,2.131,6.486,2.989,6.486,2.989s2.69-0.867,6.55-3.024V58.355h-13.036
					V89.499z"/>
				
					<radialGradient id="SVGID_9_" cx="1317.5006" cy="-1.3275" r="18.3818" gradientTransform="matrix(1.9146 0 0 1.9146 -2313.1699 46.6487)" gradientUnits="userSpaceOnUse">
					<stop  offset="0" style="stop-color:#EB2227"/>
					<stop  offset="1" style="stop-color:#BE202E"/>
				</radialGradient>
				<path fill="url(#SVGID_9_)" d="M190.099,80.477c1.312,1.311,2.625,2.498,3.923,3.564V31.333
					c-1.329,0.182-2.634,0.394-3.923,0.624V80.477z"/>
				
					<radialGradient id="SVGID_10_" cx="1317.5006" cy="-1.3275" r="18.3818" gradientTransform="matrix(1.9146 0 0 1.9146 -2313.1699 46.6487)" gradientUnits="userSpaceOnUse">
					<stop  offset="0" style="stop-color:#EB2227"/>
					<stop  offset="1" style="stop-color:#BE202E"/>
				</radialGradient>
				<path fill="url(#SVGID_10_)" d="M182.692,71.238c1.771,2.812,3.701,5.262,5.676,7.431V32.281
					c-5.57,1.098-10.713,2.639-15.317,4.528C174.405,51.735,177.483,62.969,182.692,71.238z"/>
			</g>
		</g>
	</g>
</g>
</svg>
